HIERARCHY
ROOT Hips
{
  OFFSET 55.3529 56.3333 13.9693
  CHANNELS 6 Xposition Yposition Zposition Zrotation Xrotation Yrotation
  JOINT spine
  {
    OFFSET 0 8.13249 0.467659
    CHANNELS 3 Zrotation Xrotation Yrotation
    JOINT spine1
    {
      OFFSET 0 10.3498 0
      CHANNELS 3 Zrotation Xrotation Yrotation
      JOINT spine2
      {
        OFFSET 0 9.91699 0
        CHANNELS 3 Zrotation Xrotation Yrotation
        JOINT Neck
        {
          OFFSET 0 25.461 1.2139
          CHANNELS 3 Zrotation Xrotation Yrotation
          JOINT Head
          {
            OFFSET 0 7.69245 0
            CHANNELS 3 Zrotation Xrotation Yrotation
            End Site
            {
              OFFSET 0 18.62 -6.14063
            }
          }
        }
        JOINT RightShoulder
        {
          OFFSET -4.17575 10.7096 -0.581445
          CHANNELS 3 Zrotation Xrotation Yrotation
          JOINT RightArm
          {
            OFFSET 0 14.0466 0
            CHANNELS 3 Zrotation Xrotation Yrotation
            JOINT RightArmRoll
            {
              OFFSET 0 7.09099 0
              CHANNELS 3 Zrotation Xrotation Yrotation
              JOINT RightForeArm
              {
                OFFSET 0 20.6535 0
                CHANNELS 3 Zrotation Xrotation Yrotation
                JOINT RightForeArmRoll
                {
                  OFFSET 0 7.95718 0
                  CHANNELS 3 Zrotation Xrotation Yrotation
                  JOINT RightHand
                  {
                    OFFSET 0 15.9683 0
                    CHANNELS 3 Zrotation Xrotation Yrotation
                    End Site
                    {
                      OFFSET 0 0 0
                    }
                  }
                }
              }
            }
          }
        }
        JOINT LeftShoulder
        {
          OFFSET 4.17575 10.7096 -0.581445
          CHANNELS 3 Zrotation Xrotation Yrotation
          JOINT LeftArm
          {
            OFFSET 0 14.0466 0
            CHANNELS 3 Zrotation Xrotation Yrotation
            JOINT LeftArmRoll
            {
              OFFSET 0 7.09099 0
              CHANNELS 3 Zrotation Xrotation Yrotation
              JOINT LeftForeArm
              {
                OFFSET 0 20.6535 0
                CHANNELS 3 Zrotation Xrotation Yrotation
                JOINT LeftForeArmRoll
                {
                  OFFSET 0 7.95718 0
                  CHANNELS 3 Zrotation Xrotation Yrotation
                  JOINT LeftHand
                  {
                    OFFSET 0 15.9683 0
                    CHANNELS 3 Zrotation Xrotation Yrotation
                    End Site
                    {
                      OFFSET 0 0 0
                    }
                  }
                }
              }
            }
          }
        }
      }
    }
  }
  JOINT RightUpLeg
  {
    OFFSET -7.20834 -1.32182 -1.10884
    CHANNELS 3 Zrotation Xrotation Yrotation
    JOINT RightUpLegRoll
    {
      OFFSET 0 18.7238 0
      CHANNELS 3 Zrotation Xrotation Yrotation
      JOINT RightLeg
      {
        OFFSET 0 -23.1866 0
        CHANNELS 3 Zrotation Xrotation Yrotation
        JOINT RightLegRoll
        {
          OFFSET 0 23.2624 0
          CHANNELS 3 Zrotation Xrotation Yrotation
          JOINT RightFoot
          {
            OFFSET 0 19.3621 0
            CHANNELS 3 Zrotation Xrotation Yrotation
            JOINT RightToeBase
            {
              OFFSET 0 16.1857 0
              CHANNELS 3 Zrotation Xrotation Yrotation
              End Site
              {
                OFFSET 0.00686052 7.83863 -0.903522
              }
            }
          }
        }
      }
    }
  }
  JOINT LeftUpLeg
  {
    OFFSET 7.20834 -1.32182 -1.10884
    CHANNELS 3 Zrotation Xrotation Yrotation
    JOINT LeftUpLegRoll
    {
      OFFSET 0 18.7239 0
      CHANNELS 3 Zrotation Xrotation Yrotation
      JOINT LeftLeg
      {
        OFFSET 0 23.1865 0
        CHANNELS 3 Zrotation Xrotation Yrotation
        JOINT LeftLegRoll
        {
          OFFSET 0 23.4775 0
          CHANNELS 3 Zrotation Xrotation Yrotation
          JOINT LeftFoot
          {
            OFFSET 0 19.147 0
            CHANNELS 3 Zrotation Xrotation Yrotation
            JOINT LeftToeBase
            {
              OFFSET 0 16.1857 0
              CHANNELS 3 Zrotation Xrotation Yrotation
              End Site
              {
                OFFSET -0.0307459 7.83863 -0.903522
              }
            }
          }
        }
      }
    }
  }
}
MOTION
Frames: 8
Frame Time: 0.00208333
55.6693 96.6051 55.3996 -0.577637 -2.4905 -0.404343 0.298448 -1.37892 0.102887 0.597419 1.23944 0.163881 0.595748 2.88447 0.153906 0.275369 13.8555 -5.82589 1.73387 6.69211 -5.75484 59.7947 -10.3924 -6.46669 111.304 19.052 20.0041 9.69126e-007 -2.52764e-006 -7.98789e-006 6.09624 1.72627 -0.712019 -6.96718e-006 2.77333e-006 -2.99999 8.0294 -4.95146 0.69767 -60.868 -8.17176 5.12641 -110.282 18.4867 -9.31427 2.06576e-006 1.01025e-006 7.15918e-007 -7.95757 0.0734176 1.27909 1.15337e-007 3.42484e-006 3.04553 -8.02914 -4.95144 -0.697657 174.971 0.603081 2.99292 180 7.01539e-015 178.888 177.899 7.14812 179.879 -2.99257e-007 -3.05125e-006 0.0851538 -18.4926 67.7944 19.3629 8.13649 25.2327 -3.48774 -175.382 0.167441 -0.536262 4.5067e-006 -1.99009e-005 -1.11288 -1.4328 -9.29885 0.22613 3.40533e-006 -6.77322e-007 -0.190001 20.0601 69.6064 -20.9811 -8.14272 25.329 3.35798 
55.6707 96.6052 55.3972 -0.576654 -2.48511 -0.399848 0.298345 -1.37904 0.102129 0.596419 1.24014 0.163366 0.594762 2.88516 0.15341 0.286983 13.8699 -5.83025 1.7273 6.69473 -5.75667 59.7979 -10.3937 -6.46752 111.299 19.057 20.0017 9.69126e-007 -2.52764e-006 -7.98789e-006 6.09723 1.72678 -0.712104 -6.96718e-006 2.77333e-006 -2.99999 8.0294 -4.95146 0.69767 -60.8668 -8.17389 5.12766 -110.29 18.4875 -9.30381 2.06576e-006 1.01025e-006 7.15918e-007 -7.96087 0.073417 1.27848 1.15337e-007 3.42484e-006 3.04553 -8.02914 -4.95144 -0.697657 174.97 0.610788 2.99183 180 7.01539e-015 178.888 177.9 7.14786 179.879 -2.99257e-007 -3.05125e-006 0.0852267 -18.4896 67.793 19.3609 8.13649 25.2327 -3.48774 -175.384 0.175387 -0.533758 4.5067e-006 -1.99009e-005 -1.11288 -1.43196 -9.29599 0.226336 3.40533e-006 -6.77322e-007 -0.189863 20.056 69.6023 -20.9766 -8.14272 25.3291 3.35792 
55.6538 96.5995 55.3749 -0.575631 -2.47969 -0.395241 0.29819 -1.37918 0.101326 0.595311 1.24084 0.162813 0.593669 2.88587 0.152878 0.299632 13.8837 -5.83485 1.71989 6.69746 -5.75851 59.8018 -10.3952 -6.46845 111.294 19.0621 19.9991 9.69126e-007 -2.52764e-006 -7.98789e-006 6.09847 1.72729 -0.712197 -6.96718e-006 2.77333e-006 -2.99999 8.0294 -4.95146 0.69767 -60.8652 -8.17617 5.129 -110.3 18.4883 -9.29331 2.06576e-006 1.01025e-006 7.15918e-007 -7.96413 0.0734164 1.27791 1.15337e-007 3.42484e-006 3.04553 -8.02914 -4.95144 -0.697657 174.97 0.618329 2.9908 180 7.01539e-015 178.888 177.901 7.14726 179.879 -2.99257e-007 -3.05125e-006 0.0853115 -18.4863 67.7914 19.3586 8.13649 25.2327 -3.48774 -175.386 0.183241 -0.531199 4.5067e-006 -1.99009e-005 -1.11288 -1.43112 -9.29287 0.226549 3.40533e-006 -6.77322e-007 -0.189722 20.0518 69.598 -20.9719 -8.14272 25.3291 3.35781 
55.6607 96.6024 55.3783 -0.57458 -2.47423 -0.390556 0.297997 -1.37934 0.100493 0.594127 1.24155 0.162234 0.5925 2.88657 0.152322 0.313006 13.8972 -5.83963 1.7119 6.70026 -5.76035 59.8063 -10.3968 -6.46945 111.288 19.0674 19.9964 9.69126e-007 -2.52764e-006 -7.98789e-006 6.09988 1.7278 -0.712295 -6.96718e-006 2.77333e-006 -2.99999 8.0294 -4.95146 0.69767 -60.8632 -8.17856 5.1304 -110.309 18.489 -9.28279 2.06576e-006 1.01025e-006 7.15918e-007 -7.96736 0.0734158 1.27738 1.15337e-007 3.42484e-006 3.04553 -8.02914 -4.95144 -0.697657 174.969 0.625753 2.9898 180 7.01539e-015 178.889 177.902 7.14644 179.878 -2.99257e-007 -3.05125e-006 0.0854045 -18.4831 67.7898 19.3562 8.13649 25.2327 -3.48774 -175.387 0.191032 -0.528602 4.5067e-006 -1.99009e-005 -1.11288 -1.43026 -9.28958 0.226768 3.40533e-006 -6.77322e-007 -0.18958 20.0475 69.5936 -20.9671 -8.14273 25.3292 3.35768 
55.6731 96.5421 55.3494 -0.573513 -2.46877 -0.385825 0.297783 -1.3795 0.099641 0.592899 1.24225 0.16164 0.591288 2.88728 0.151751 0.326794 13.9104 -5.8445 1.70358 6.7031 -5.76221 59.8111 -10.3984 -6.47049 111.283 19.0727 19.9936 9.69126e-007 -2.52764e-006 -7.98789e-006 6.10138 1.72831 -0.712395 -6.96718e-006 2.77333e-006 -2.99999 8.0294 -4.95146 0.69767 -60.8609 -8.18102 5.13183 -110.319 18.4897 -9.27225 2.06576e-006 1.01025e-006 7.15918e-007 -7.97058 0.0734152 1.27686 1.15337e-007 3.42484e-006 3.04553 -8.02914 -4.95144 -0.697657 174.968 0.633112 2.98884 180 7.01539e-015 178.889 177.904 7.14549 179.878 -2.99257e-007 -3.05125e-006 0.0855022 -18.4797 67.7881 19.3537 8.13649 25.2327 -3.48774 -175.389 0.198787 -0.525983 4.5067e-006 -1.99009e-005 -1.11288 -1.4294 -9.28618 0.22699 3.40533e-006 -6.77322e-007 -0.189437 20.0432 69.5892 -20.9622 -8.14273 25.3292 3.35753 
55.6734 96.5527 55.3494 -0.572443 -2.4633 -0.381084 0.297564 -1.37967 0.0987848 0.59166 1.24296 0.161043 0.590065 2.88799 0.151177 0.340688 13.9237 -5.8494 1.69517 6.70595 -5.76406 59.816 -10.4001 -6.47154 111.277 19.0781 19.9908 9.69126e-007 -2.52764e-006 -7.98789e-006 6.10292 1.72882 -0.712497 -6.96718e-006 2.77333e-006 -2.99999 8.0294 -4.95146 0.69767 -60.8587 -8.18349 5.13327 -110.328 18.4903 -9.26171 2.06576e-006 1.01025e-006 7.15918e-007 -7.97379 0.0734147 1.27635 1.15337e-007 3.42484e-006 3.04553 -8.02914 -4.95144 -0.697657 174.968 0.640454 2.98787 180 7.01539e-015 178.89 177.905 7.14452 179.878 -2.99257e-007 -3.05125e-006 0.0856011 -18.4764 67.7864 19.3511 8.13649 25.2327 -3.48774 -175.391 0.206532 -0.523359 4.5067e-006 -1.99009e-005 -1.11288 -1.42855 -9.28276 0.227212 3.40533e-006 -6.77322e-007 -0.189294 20.0388 69.5847 -20.9574 -8.14274 25.3293 3.35738 
55.6598 96.6065 55.3603 -0.571382 -2.45783 -0.376365 0.297355 -1.37983 0.0979376 0.590444 1.24367 0.160453 0.588864 2.8887 0.15061 0.354378 13.937 -5.85425 1.68693 6.70878 -5.76591 59.8208 -10.4018 -6.47258 111.271 19.0834 19.988 9.69126e-007 -2.52764e-006 -7.98789e-006 6.1044 1.72933 -0.712597 -6.96718e-006 2.77333e-006 -2.99999 8.0294 -4.95146 0.69767 -60.8565 -8.18593 5.1347 -110.338 18.491 -9.25117 2.06576e-006 1.01025e-006 7.15918e-007 -7.97701 0.0734141 1.27583 1.15337e-007 3.42484e-006 3.04553 -8.02914 -4.95144 -0.697657 174.967 0.647829 2.9869 180 7.01539e-015 178.89 177.906 7.1436 179.878 -2.99257e-007 -3.05125e-006 0.0856977 -18.473 67.7847 19.3487 8.13649 25.2327 -3.48774 -175.392 0.214296 -0.520746 4.5067e-006 -1.99009e-005 -1.11288 -1.42769 -9.27939 0.227433 3.40533e-006 -6.77322e-007 -0.189152 20.0344 69.5803 -20.9525 -8.14274 25.3294 3.35723 
55.6661 96.5861 55.3491 -0.570343 -2.45239 -0.371702 0.297173 -1.37998 0.0971127 0.589281 1.24438 0.159882 0.587717 2.8894 0.15006 0.367555 13.9505 -5.85898 1.67911 6.71156 -5.76776 59.8251 -10.4034 -6.47356 111.265 19.0886 19.9853 9.69126e-007 -2.52764e-006 -7.98789e-006 6.10576 1.72984 -0.712693 -6.96718e-006 2.77333e-006 -2.99999 8.0294 -4.95146 0.69767 -60.8546 -8.18829 5.13608 -110.347 18.4918 -9.24065 2.06576e-006 1.01025e-006 7.15918e-007 -7.98024 0.0734135 1.27529 1.15337e-007 3.42484e-006 3.04553 -8.02914 -4.95144 -0.697657 174.966 0.655287 2.98589 180 7.01539e-015 178.891 177.907 7.14285 179.877 -2.99257e-007 -3.05125e-006 0.0857883 -18.4698 67.783 19.3463 8.13649 25.2327 -3.48774 -175.394 0.222105 -0.518159 4.5067e-006 -1.99009e-005 -1.11288 -1.42684 -9.27615 0.22765 3.40533e-006 -6.77322e-007 -0.18901 20.0302 69.5759 -20.9477 -8.14274 25.3294 3.35711 
